<?xml version="1.0" encoding="utf-8"?>
<svg viewBox="406.962 219.15 61.6 61.7" width="61.6" height="61.7" xmlns="http://www.w3.org/2000/svg">
  <defs>
    <linearGradient gradientUnits="userSpaceOnUse" x1="430.629" y1="235.665" x2="430.629" y2="249.977" id="gradient-2" gradientTransform="matrix(0.719305, -0.694695, 0.306969, 0.317844, 56.580936, 461.220245)">
      <stop offset="0" style="stop-color: rgb(0, 128, 0);"/>
      <stop offset="1" style="stop-color: rgba(0, 0, 0, 1)"/>
    </linearGradient>
    <linearGradient gradientUnits="userSpaceOnUse" x1="445.901" y1="245.969" x2="445.901" y2="260.281" id="gradient-0" gradientTransform="matrix(0.711567, -0.702617, 0.399785, 0.404878, 30.673348, 464.276913)">
      <stop offset="0" style="stop-color: rgb(0, 0, 255);"/>
      <stop offset="1" style=""/>
    </linearGradient>
    <linearGradient gradientUnits="userSpaceOnUse" x1="430.241" y1="246.102" x2="430.241" y2="260.414" id="gradient-1" gradientTransform="matrix(0.723983, -0.689817, 0.413154, 0.433618, 16.441324, 439.828791)">
      <stop offset="0" style="stop-color: rgb(255, 0, 0);"/>
      <stop offset="1" style="stop-color: rgba(0, 0, 0, 1)"/>
    </linearGradient>
  </defs>
  <g transform="matrix(1.343204, 0, 0, 1.351095, -150.191757, -85.96608)">
    <g transform="matrix(1, 0, 0, 1, 0.000144, 7.545692)">
      <path d="M 443.734 243.41 L 444.895 242.248 L 433.371 230.77 L 438.761 230.77 C 439.226 230.77 439.598 230.399 439.598 229.933 C 439.598 229.469 439.226 229.098 438.761 229.098 L 432.72 229.098 C 432.162 229.098 431.698 229.283 431.326 229.655 C 431.279 229.702 431.233 229.702 431.233 229.748 C 431.187 229.748 431.187 229.795 431.141 229.841 C 430.815 230.213 430.629 230.677 430.629 231.235 L 430.629 237.276 C 430.629 237.74 431.001 238.112 431.465 238.112 C 431.93 238.112 432.302 237.74 432.302 237.276 L 432.302 231.886 L 443.734 243.41 Z" style="fill: url(#gradient-2);" transform="matrix(0.707107, 0.707107, -0.707107, 0.707107, 295.274329, -240.347278)"/>
      <path d="M 451.792 257.156 L 452.953 255.994 L 441.429 244.516 L 446.819 244.516 C 447.284 244.516 447.656 244.145 447.656 243.679 C 447.656 243.215 447.284 242.844 446.819 242.844 L 440.778 242.844 C 440.22 242.844 439.756 243.029 439.384 243.401 C 439.337 243.448 439.291 243.448 439.291 243.494 C 439.245 243.494 439.245 243.541 439.199 243.587 C 438.873 243.959 438.687 244.423 438.687 244.981 L 438.687 251.022 C 438.687 251.486 439.059 251.858 439.523 251.858 C 439.988 251.858 440.36 251.486 440.36 251.022 L 440.36 245.632 L 451.792 257.156 Z" style="fill-rule: nonzero; paint-order: fill markers; fill: url(#gradient-0);" transform="matrix(-0.965926, 0.258819, -0.258819, -0.965926, 941.153814, 376.094799)"/>
      <path d="M 435.692 257.156 L 436.853 255.994 L 425.329 244.516 L 430.719 244.516 C 431.184 244.516 431.556 244.145 431.556 243.679 C 431.556 243.215 431.184 242.844 430.719 242.844 L 424.678 242.844 C 424.12 242.844 423.656 243.029 423.284 243.401 C 423.237 243.448 423.191 243.448 423.191 243.494 C 423.145 243.494 423.145 243.541 423.099 243.587 C 422.773 243.959 422.587 244.423 422.587 244.981 L 422.587 251.022 C 422.587 251.486 422.959 251.858 423.423 251.858 C 423.888 251.858 424.26 251.486 424.26 251.022 L 424.26 245.632 L 435.692 257.156 Z" style="fill: url(#gradient-1);" transform="matrix(0.258819, -0.965926, 0.965926, 0.258819, 77.018861, 600.372923)"/>
    </g>
    <text style="fill: rgb(0, 128, 0); font-family: Arial, sans-serif; font-size: 2.1px; white-space: pre;" transform="matrix(4.048387, 0, 0, 4.048387, -1324.522583, -692.997253)"><tspan x="434.664" y="228.866">Z</tspan><tspan x="434.664" dy="1em">​</tspan></text>
    <text style="fill: rgb(0, 0, 255); font-family: Arial, sans-serif; font-size: 2.1px; white-space: pre;" transform="matrix(4.048387, 0, 0, 4.048387, -1304.704102, -656.847656)"><tspan x="434.664" y="228.866">X</tspan><tspan x="434.664" dy="1em">​</tspan></text>
    <text style="fill: rgb(255, 0, 0); font-family: Arial, sans-serif; font-size: 2.1px; white-space: pre;" transform="matrix(4.048387, 0, 0, 4.048387, -1344.893311, -656.847656)"><tspan x="434.664" y="228.866">Y</tspan><tspan x="434.664" dy="1em">​</tspan></text>
  </g>
</svg>