<?xml version="1.0" encoding="utf-8"?>
<svg fill="#000000" width="52" height="52" version="1.1" id="lni_lni-full-screen" xmlns="http://www.w3.org/2000/svg" xmlns:xlink="http://www.w3.org/1999/xlink"
	 x="0px" y="0px" viewBox="0 0 64 64" style="enable-background:new 0 0 64 64;" xml:space="preserve">

   <path fill=" rgb(255, 157, 157)" d="m411.189,-31.64148c5.558,0 10.005,-4.447 10.005,-10.005l0,-72.258c0,-13.895 -11.117,-25.012 -25.012,-25.012l-72.258,0c-5.558,0 -10.005,4.447 -10.005,10.005c0,5.558 4.447,10.005 10.005,10.005l64.476,0l-138.401,136.733l-137.845,-137.289l64.476,0c5.559,0 10.005,-4.447 10.005,-10.005c0,-5.558 -4.446,-10.005 -10.005,-10.005l-72.257,0c-6.67,0 -12.228,2.224 -16.675,6.67c-0.556,0.556 -1.112,0.556 -1.112,1.112c-0.555,0 -0.555,0.556 -1.111,1.111c-3.891,4.447 -6.114,10.005 -6.114,16.675l0,72.258c0,5.558 4.446,10.005 10.005,10.005c5.558,0 10.004,-4.447 10.004,-10.005l0,-64.476l136.734,137.845l-137.289,137.845l0,-64.476c0,-5.559 -4.447,-10.005 -10.005,-10.005c-5.558,0 -10.005,4.446 -10.005,10.005l0,72.257c0,13.896 11.116,25.012 25.012,25.012l72.257,0c5.559,0 10.005,-4.446 10.005,-10.005c0,-5.558 -4.446,-10.004 -10.005,-10.004l-63.92,0l137.845,-136.734l137.845,137.845l-64.476,0c-5.558,0 -10.004,4.447 -10.004,10.005c0,5.558 4.446,10.005 10.004,10.005l72.258,0c13.895,0 25.012,-11.117 25.012,-25.012l0,-72.258c0,-5.558 -4.447,-10.004 -10.005,-10.004c-5.558,0 -10.005,4.446 -10.005,10.004l0,64.476l-136.733,-138.956l137.845,-137.845l0,64.476c0,5.558 3.891,10.005 9.449,10.005z"/>
   <path d="m92.74201,-136.67048l-10.948,10.948l10.948,10.946l108.595,108.16l-50.795,0c-4.379,0 -7.882,3.503 -7.882,7.881c0,4.378 3.503,7.881 7.882,7.881l56.925,0c10.947,0 19.705,-8.758 19.705,-19.704l0,-56.925c0,-4.378 -3.503,-7.881 -7.883,-7.881c-4.378,0 -7.881,3.503 -7.881,7.881l0,50.357l-107.719,-108.596l-10.947,-10.948z"/>
   <path d="m418.885,-124.97748l-10.948,-10.948l-10.946,10.948l-108.16,108.595l0,-50.795c0,-4.379 -3.503,-7.882 -7.881,-7.882c-4.378,0 -7.881,3.503 -7.881,7.882l0,56.925c0,10.947 8.758,19.705 19.704,19.705l56.925,0c4.378,0 7.881,-3.503 7.881,-7.883c0,-4.378 -3.503,-7.881 -7.881,-7.881l-50.357,0l108.596,-107.719l10.948,-10.947z"/>
   <path d="m406.99601,199.05953l10.948,-10.948l-10.948,-10.946l-108.595,-108.16l50.795,0c4.379,0 7.882,-3.503 7.882,-7.881c0,-4.378 -3.503,-7.881 -7.882,-7.881l-56.925,0c-10.947,0 -19.705,8.758 -19.705,19.704l0,56.925c0,4.378 3.503,7.881 7.883,7.881c4.378,0 7.881,-3.503 7.881,-7.881l0,-50.357l107.719,108.596l10.947,10.948z"/>
   <path d="m80.853,187.36652l10.948,10.948l10.946,-10.948l108.16,-108.595l0,50.795c0,4.379 3.503,7.882 7.881,7.882c4.378,0 7.881,-3.503 7.881,-7.882l0,-56.925c0,-10.947 -8.758,-19.705 -19.704,-19.705l-56.925,0c-4.378,0 -7.881,3.503 -7.881,7.883c0,4.378 3.503,7.881 7.881,7.881l50.357,0l-108.596,107.719l-10.948,10.947z"/>
  <path stroke="null" d="m3.80483,1.59506l-1.9629,1.97351l1.9629,1.97315l19.47033,19.49718l-9.10719,0c-0.78512,0 -1.41319,0.63146 -1.41319,1.42065c0,0.78919 0.62806,1.42065 1.41319,1.42065l10.20626,0c1.96272,0 3.53297,-1.57874 3.53297,-3.55189l0,-10.26144c0,-0.78919 -0.62806,-1.42065 -1.41337,-1.42065c-0.78494,0 -1.41301,0.63146 -1.41301,1.42065l0,9.07747l-19.31327,-19.57577l-1.96272,-1.97351z"/>
  <path stroke="null" d="m62.28,3.70286l-1.9629,-1.97351l-1.96254,1.97351l-19.39234,19.57559l0,-9.15643c0,-0.78937 -0.62806,-1.42083 -1.41301,-1.42083c-0.78494,0 -1.41301,0.63146 -1.41301,1.42083l0,10.26144c0,1.97333 1.57025,3.55207 3.53279,3.55207l10.20626,0c0.78494,0 1.41301,-0.63146 1.41301,-1.42101c0,-0.78919 -0.62806,-1.42065 -1.41301,-1.42065l-9.02866,0l19.47051,-19.41768l1.9629,-1.97333z"/>
  <path stroke="null" d="m60.14838,62.11454l1.9629,-1.97351l-1.9629,-1.97315l-19.47033,-19.49718l9.10719,0c0.78512,0 1.41319,-0.63146 1.41319,-1.42065c0,-0.78919 -0.62806,-1.42065 -1.41319,-1.42065l-10.20626,0c-1.96272,0 -3.53297,1.57874 -3.53297,3.55189l0,10.26144c0,0.78919 0.62806,1.42065 1.41337,1.42065c0.78494,0 1.41301,-0.63146 1.41301,-1.42065l0,-9.07747l19.31327,19.57577l1.96272,1.97351z"/>
  <path stroke="null" d="m1.67321,60.00673l1.9629,1.97351l1.96254,-1.97351l19.39234,-19.57559l0,9.15643c0,0.78937 0.62806,1.42083 1.41301,1.42083c0.78494,0 1.41301,-0.63146 1.41301,-1.42083l0,-10.26144c0,-1.97333 -1.57025,-3.55207 -3.53279,-3.55207l-10.20626,0c-0.78494,0 -1.41301,0.63146 -1.41301,1.42101c0,0.78919 0.62806,1.42065 1.41301,1.42065l9.02866,0l-19.47051,19.41768l-1.9629,1.97333z"/>
</svg>